# xmcd
#
# Track frame offsets: 
#        150
#        22846
#        46390
#        66552
#        102605
#        124465
#        146282
#        166236
#        192912
#        196471
#        256120
#        302954
#        325829
#        354108
#
# Disc length: 4781 seconds
#
# Revision: 0
# Processed by: cddbd v1.5.2PL0 Copyright (c) Steve Scherf et al.
# Submitted via: ExactAudioCopy v0.95a5
#
DISCID=cb12ab0e
DTITLE=Luther Vandross - Live At Wembley
DYEAR=1989
DGENRE=Soul
TTITLE0=Never Too Much
TTITLE1=Any Love
TTITLE2=Come Back
TTITLE3=Love Won't Let Me Wait
TTITLE4=Give Me The Reason
TTITLE5=Singer's Intro Medley
TTITLE6=Searching
TTITLE7=For You To Love
TTITLE8=Hello To Audience
TTITLE9=Superstar
TTITLE10=A House Is Not A Home
TTITLE11=She Won't Talk To Me
TTITLE12=Stop To Love
TTITLE13=Closing Credits
EXTD=
EXTT0=
EXTT1=
EXTT2=
EXTT3=
EXTT4=
EXTT5=
EXTT6=
EXTT7=
EXTT8=
EXTT9=
EXTT10=
EXTT11=
EXTT12=
EXTT13=
PLAYORDER=
